<svg width="32" height="26" viewBox="0 0 32 26" fill="none" xmlns="http://www.w3.org/2000/svg">
<path d="M26.5 0H5.5C2.47 0 0 2.46 0 5.5V20.5C0 23.53 2.47 26 5.5 26H26.5C29.53 26 32 23.53 32 20.5V5.5C32 2.46 29.53 0 26.5 0ZM8.5 20.5C8.5 21.32 7.83 22 7 22C6.17 22 5.5 21.32 5.5 20.5V11.5C5.5 10.67 6.17 10 7 10C7.83 10 8.5 10.67 8.5 11.5V20.5ZM14.5 20.5C14.5 21.32 13.83 22 13 22C12.17 22 11.5 21.32 11.5 20.5V9.5C11.5 8.67 12.17 8 13 8C13.83 8 14.5 8.67 14.5 9.5V20.5ZM20.5 20.5C20.5 21.32 19.83 22 19 22C18.17 22 17.5 21.32 17.5 20.5V7.5C17.5 6.67 18.17 6 19 6C19.83 6 20.5 6.67 20.5 7.5V20.5ZM26.5 20.5C26.5 21.32 25.83 22 25 22C24.17 22 23.5 21.32 23.5 20.5V5.5C23.5 4.67 24.17 4 25 4C25.83 4 26.5 4.67 26.5 5.5V20.5Z" fill="black"/>
</svg>
