<?xml version="1.0" encoding="UTF-8"?><svg id="Calque_1" xmlns="http://www.w3.org/2000/svg" xmlns:xlink="http://www.w3.org/1999/xlink" viewBox="0 0 3000 3000"><defs><style>.cls-1{fill:url(#Dégradé_sans_nom);}.cls-1,.cls-2{stroke-width:0px;}.cls-2{fill:#fff;}</style><linearGradient id="Dégradé_sans_nom" x1="80.42" y1="108.75" x2="2705.42" y2="2683.75" gradientTransform="translate(0 3001.29) scale(1 -1)" gradientUnits="userSpaceOnUse"><stop offset=".35" stop-color="#04948c"/><stop offset=".94" stop-color="#ff03b7"/></linearGradient></defs><path class="cls-1" d="M2587.07,3000H412.93c-227.06,0-412.93-185.87-412.93-412.93V412.93C0,185.87,185.87,0,412.93,0h2174.14C2814.13,0,3000,185.87,3000,412.93v2174.14c0,227.06-185.87,412.93-412.93,412.93Z"/><path class="cls-2" d="M1307.79,1797.52l683.27-40.2c73.69-107.18,120.58-214.35,154.07-321.53l-522.5,13.39-314.84,348.34Z"/><path class="cls-2" d="M946.05,2192.74c73.68,20.1,555.99,113.88,944.52-314.84,6.7-6.7,13.4-13.4,20.1-26.79l-696.67,40.19-267.95,301.44Z"/><path class="cls-2" d="M2192.02,826.2s-13.4,6.7-33.5,26.79l-448.81,495.71,462.21-13.4c66.99-281.35,20.1-509.1,20.1-509.1Z"/><path class="cls-2" d="M1140.32,1107.54c-20.1,20.1-33.5,33.5-53.59,53.59-381.83,422.03-241.16,890.94-214.36,971.32l247.85-274.65,20.1-750.26Z"/><path class="cls-2" d="M2058.05,812.79c33.5-40.19,53.59-60.29,46.89-60.29,0,0-207.66-20.1-455.51,53.59l6.7,455.52,401.92-448.82Z"/><path class="cls-2" d="M1555.63,839.58c-100.48,40.19-207.66,93.78-314.84,180.87l-20.1,723.46,334.94-375.13v-529.2Z"/></svg>