<svg width="362" height="80" viewBox="0 0 362 80" fill="none" xmlns="http://www.w3.org/2000/svg">
<path d="M68.9886 80H11.0114C4.95646 80 0 75.0435 0 68.9886V11.0114C0 4.95646 4.95646 0 11.0114 0H68.9886C75.0435 0 80 4.95646 80 11.0114V68.9886C80 75.0435 75.0435 80 68.9886 80Z" fill="url(#paint0_linear_7276_32380)"/>
<path d="M34.8744 47.9338L53.095 46.862C55.06 44.0039 56.3104 41.1457 57.2036 38.2876L43.2702 38.6448L34.8744 47.9338Z" fill="white"/>
<path d="M25.2279 58.4731C27.1929 59.009 40.0545 61.5099 50.4152 50.0773C50.5939 49.8987 50.7725 49.7201 50.9511 49.3628L32.3733 50.4346L25.2279 58.4731Z" fill="white"/>
<path d="M58.4539 22.0317C58.4539 22.0317 58.0966 22.2104 57.5607 22.7463L45.5923 35.9651L57.918 35.6079C59.7044 28.1053 58.4539 22.0317 58.4539 22.0317Z" fill="white"/>
<path d="M30.4084 29.5347C29.8725 30.0706 29.5152 30.4279 28.9793 30.9638C18.7972 42.2177 22.5485 54.722 23.2631 56.8656L29.8725 49.5417L30.4084 29.5347Z" fill="white"/>
<path d="M54.8814 21.6744C55.7745 20.6026 56.3105 20.0668 56.1318 20.0668C56.1318 20.0668 50.5942 19.5309 43.9847 21.4958L44.1634 33.6429L54.8814 21.6744Z" fill="white"/>
<path d="M41.4836 22.3887C38.8041 23.4605 35.9459 24.8895 33.0878 27.2118L32.5519 46.5042L41.4836 36.5007V22.3887Z" fill="white"/>
<path d="M127.598 26.852C125.971 26.1607 124.385 25.6523 122.84 25.327C121.335 25.0017 119.892 24.839 118.509 24.839C116.272 24.8797 114.259 25.3067 112.47 26.12C110.721 26.9333 109.237 28.072 108.017 29.536C106.797 30.9593 105.862 32.6267 105.211 34.538C104.56 36.4493 104.235 38.503 104.235 40.699C104.235 42.9357 104.54 45.0097 105.15 46.921C105.76 48.8323 106.634 50.52 107.773 51.984C108.952 53.448 110.396 54.5867 112.104 55.4C113.853 56.2133 115.825 56.62 118.021 56.62C120.014 56.62 121.62 56.498 122.84 56.254C124.101 55.9693 125.036 55.6237 125.646 55.217C126.297 54.7697 126.683 54.3223 126.805 53.875C127.13 52.9397 127.293 51.8823 127.293 50.703C127.293 49.5237 127.293 48.263 127.293 46.921C127.293 46.1483 127.232 45.5993 127.11 45.274C127.029 44.908 126.846 44.725 126.561 44.725C125.056 44.725 123.694 44.725 122.474 44.725C121.254 44.725 120.298 44.725 119.607 44.725C118.59 44.725 117.818 44.4607 117.289 43.932C116.76 43.3627 116.496 42.712 116.496 41.98C116.496 41.248 116.76 40.6177 117.289 40.089C117.818 39.5197 118.59 39.235 119.607 39.235C120.664 39.235 121.884 39.235 123.267 39.235C124.65 39.235 125.849 39.235 126.866 39.235C128.045 39.235 129.082 39.4383 129.977 39.845C130.872 40.2517 131.563 40.9837 132.051 42.041C132.539 43.0577 132.783 44.481 132.783 46.311C132.783 47.8563 132.783 49.1577 132.783 50.215C132.783 51.2317 132.722 52.167 132.6 53.021C132.519 53.8343 132.336 54.6883 132.051 55.583C131.766 56.3557 131.258 57.1283 130.526 57.901C129.794 58.6737 128.818 59.3853 127.598 60.036C126.419 60.646 125.016 61.134 123.389 61.5C121.803 61.9067 120.014 62.11 118.021 62.11C115.052 62.11 112.368 61.561 109.969 60.463C107.61 59.365 105.597 57.84 103.93 55.888C102.263 53.936 100.982 51.679 100.087 49.117C99.1923 46.5143 98.745 43.7083 98.745 40.699C98.745 36.7543 99.5583 33.1757 101.185 29.963C102.812 26.7503 105.089 24.1883 108.017 22.277C110.986 20.3657 114.483 19.3897 118.509 19.349C119.607 19.349 120.766 19.4303 121.986 19.593C123.206 19.7557 124.446 20.02 125.707 20.386C127.008 20.752 128.33 21.1993 129.672 21.728C130.648 22.1347 131.258 22.704 131.502 23.436C131.787 24.1273 131.787 24.8187 131.502 25.51C131.217 26.1607 130.729 26.6487 130.038 26.974C129.347 27.2587 128.533 27.218 127.598 26.852ZM148.846 61.561C147.138 60.951 145.633 60.1987 144.332 59.304C143.071 58.3687 141.953 57.169 140.977 55.705C140.123 54.4443 139.452 53.021 138.964 51.435C138.476 49.849 138.232 48.141 138.232 46.311C138.232 43.261 138.882 40.5567 140.184 38.198C141.526 35.7987 143.335 33.928 145.613 32.586C147.931 31.2033 150.533 30.512 153.421 30.512C156.349 30.512 158.951 31.2033 161.229 32.586C163.547 33.928 165.356 35.7987 166.658 38.198C168 40.5567 168.671 43.261 168.671 46.311C168.671 48.1003 168.427 49.788 167.939 51.374C167.491 52.9193 166.82 54.3427 165.926 55.644C164.95 57.1487 163.831 58.3483 162.571 59.243C161.31 60.1377 159.765 60.9103 157.935 61.561C156.999 61.8863 156.186 61.866 155.495 61.5C154.844 61.134 154.397 60.6053 154.153 59.914C153.909 59.2227 153.949 58.5517 154.275 57.901C154.6 57.2097 155.251 56.681 156.227 56.315C157.447 55.9083 158.443 55.4407 159.216 54.912C159.988 54.3427 160.72 53.57 161.412 52.594C161.981 51.74 162.408 50.7843 162.693 49.727C163.018 48.6697 163.181 47.531 163.181 46.311C163.181 44.3183 162.754 42.5493 161.9 41.004C161.086 39.418 159.948 38.198 158.484 37.344C157.02 36.4493 155.332 36.002 153.421 36.002C151.509 36.002 149.822 36.4493 148.358 37.344C146.894 38.198 145.755 39.418 144.942 41.004C144.128 42.5493 143.722 44.3183 143.722 46.311C143.722 47.531 143.864 48.69 144.149 49.788C144.474 50.8453 144.921 51.801 145.491 52.655C145.938 53.3057 146.406 53.8547 146.894 54.302C147.422 54.7493 147.992 55.1357 148.602 55.461C149.212 55.7863 149.883 56.071 150.615 56.315C151.591 56.681 152.241 57.2097 152.567 57.901C152.892 58.5517 152.933 59.2227 152.689 59.914C152.445 60.6053 151.977 61.134 151.286 61.5C150.635 61.866 149.822 61.8863 148.846 61.561ZM208.625 44.115C207.73 44.115 206.51 44.115 204.965 44.115C203.46 44.115 201.935 44.115 200.39 44.115C198.845 44.115 197.543 44.115 196.486 44.115C195.876 44.115 195.429 44.2167 195.144 44.42C194.859 44.5827 194.676 44.908 194.595 45.396C194.554 45.8433 194.534 46.4737 194.534 47.287C194.534 47.8157 194.534 48.5273 194.534 49.422C194.534 50.276 194.534 51.252 194.534 52.35C194.534 53.4073 194.534 54.5257 194.534 55.705C194.534 56.8437 194.534 57.962 194.534 59.06C194.534 59.8733 194.351 60.5443 193.985 61.073C193.619 61.561 193.151 61.8863 192.582 62.049C192.053 62.2117 191.504 62.2117 190.935 62.049C190.406 61.8863 189.959 61.561 189.593 61.073C189.227 60.5443 189.044 59.8733 189.044 59.06C189.044 58.1653 189.044 56.8843 189.044 55.217C189.044 53.5497 189.044 51.679 189.044 49.605C189.044 47.4903 189.044 45.335 189.044 43.139C189.044 40.9023 189.044 38.7673 189.044 36.734C189.044 34.7007 189.044 32.9113 189.044 31.366C189.044 29.8207 189.044 28.682 189.044 27.95C189.044 26.2013 189.288 24.7373 189.776 23.558C190.305 22.3787 191.138 21.5043 192.277 20.935C193.456 20.325 195.022 20.02 196.974 20.02C197.706 20.02 198.743 20.02 200.085 20.02C201.468 20.02 203.013 20.02 204.721 20.02C206.47 20.02 208.218 20.02 209.967 20.02C210.984 20.02 211.736 20.3047 212.224 20.874C212.753 21.4027 213.017 22.033 213.017 22.765C213.017 23.497 212.753 24.1477 212.224 24.717C211.736 25.2457 210.984 25.51 209.967 25.51C208.788 25.51 207.385 25.51 205.758 25.51C204.131 25.51 202.525 25.51 200.939 25.51C199.353 25.51 198.031 25.51 196.974 25.51C196.161 25.51 195.571 25.571 195.205 25.693C194.88 25.7743 194.676 25.998 194.595 26.364C194.554 26.6893 194.534 27.218 194.534 27.95C194.534 29.2513 194.534 30.9187 194.534 32.952C194.534 34.9447 194.534 37.1203 194.534 39.479C194.534 41.8377 194.534 44.237 194.534 46.677C194.534 49.0763 194.534 51.3537 194.534 53.509C194.534 55.6643 194.534 57.5147 194.534 59.06C194.534 59.8733 194.351 60.5443 193.985 61.073C193.619 61.561 193.151 61.8863 192.582 62.049C192.053 62.2117 191.504 62.2117 190.935 62.049C190.406 61.8863 189.959 61.561 189.593 61.073C189.227 60.5443 189.044 59.8733 189.044 59.06C189.044 58.328 189.044 57.4943 189.044 56.559C189.044 55.583 189.044 54.5867 189.044 53.57C189.044 52.5127 189.044 51.496 189.044 50.52C189.044 49.544 189.044 48.6697 189.044 47.897C189.044 46.3517 189.207 45.0097 189.532 43.871C189.857 42.6917 190.325 41.7157 190.935 40.943C191.545 40.1703 192.318 39.601 193.253 39.235C194.188 38.8283 195.266 38.625 196.486 38.625C198.072 38.625 199.516 38.625 200.817 38.625C202.159 38.625 203.46 38.625 204.721 38.625C205.982 38.625 207.283 38.625 208.625 38.625C209.642 38.625 210.394 38.9097 210.882 39.479C211.411 40.0077 211.675 40.638 211.675 41.37C211.675 42.102 211.411 42.7527 210.882 43.322C210.394 43.8507 209.642 44.115 208.625 44.115ZM223.214 33.562C223.214 34.9853 223.214 36.5307 223.214 38.198C223.214 39.8653 223.214 41.5937 223.214 43.383C223.214 45.1723 223.214 47.0023 223.214 48.873C223.214 50.581 223.458 52.0247 223.946 53.204C224.475 54.3427 225.247 55.217 226.264 55.827C227.281 56.3963 228.521 56.681 229.985 56.681C231.327 56.681 232.567 56.4573 233.706 56.01C234.885 55.522 235.902 54.8713 236.756 54.058C237.61 53.2447 238.261 52.3093 238.708 51.252C239.196 50.1947 239.44 49.056 239.44 47.836C239.44 47.348 239.44 46.5347 239.44 45.396C239.44 44.2573 239.44 42.9763 239.44 41.553C239.44 40.1297 239.44 38.7063 239.44 37.283C239.44 35.8597 239.44 34.6193 239.44 33.562C239.44 32.7487 239.623 32.098 239.989 31.61C240.355 31.122 240.802 30.7967 241.331 30.634C241.9 30.4713 242.449 30.4713 242.978 30.634C243.547 30.7967 244.015 31.122 244.381 31.61C244.747 32.098 244.93 32.7487 244.93 33.562C244.93 34.66 244.93 36.063 244.93 37.771C244.93 39.4383 244.93 41.2073 244.93 43.078C244.93 44.9487 244.93 46.6973 244.93 48.324C244.93 49.9507 244.93 51.2317 244.93 52.167C244.93 53.143 244.93 53.997 244.93 54.729C244.93 55.461 244.93 56.1727 244.93 56.864C244.93 57.5147 244.93 58.2873 244.93 59.182C244.93 60.1987 244.645 60.9713 244.076 61.5C243.547 61.988 242.917 62.232 242.185 62.232C241.453 62.232 240.802 61.988 240.233 61.5C239.704 60.9713 239.44 60.1987 239.44 59.182C239.44 58.2467 239.44 57.3723 239.44 56.559C239.44 55.7457 239.44 54.973 239.44 54.241C239.44 53.509 239.44 52.8177 239.44 52.167C239.44 50.7843 239.44 49.2593 239.44 47.592C239.44 45.884 239.44 44.1557 239.44 42.407C239.44 40.6583 239.44 39.0113 239.44 37.466C239.44 35.9207 239.44 34.6193 239.44 33.562C239.44 32.7487 239.623 32.098 239.989 31.61C240.355 31.122 240.802 30.7967 241.331 30.634C241.9 30.4713 242.449 30.4713 242.978 30.634C243.547 30.7967 244.015 31.122 244.381 31.61C244.747 32.098 244.93 32.7487 244.93 33.562C244.93 34.66 244.93 35.88 244.93 37.222C244.93 38.564 244.93 39.906 244.93 41.248C244.93 42.59 244.93 43.8507 244.93 45.03C244.93 46.1687 244.93 47.104 244.93 47.836C244.93 49.7473 244.544 51.5773 243.771 53.326C243.039 55.034 242.002 56.559 240.66 57.901C239.318 59.2023 237.732 60.2393 235.902 61.012C234.113 61.7847 232.14 62.171 229.985 62.171C227.586 62.171 225.451 61.6627 223.58 60.646C221.75 59.5887 220.306 58.0637 219.249 56.071C218.232 54.0783 217.724 51.679 217.724 48.873C217.724 47.3277 217.724 45.64 217.724 43.81C217.724 41.98 217.724 40.1703 217.724 38.381C217.724 36.551 217.724 34.9447 217.724 33.562C217.724 32.5453 217.988 31.793 218.517 31.305C219.086 30.7763 219.737 30.512 220.469 30.512C221.201 30.512 221.831 30.7763 222.36 31.305C222.929 31.793 223.214 32.5453 223.214 33.562ZM269.352 37.588C268.62 37.2627 267.888 36.978 267.156 36.734C266.424 36.49 265.692 36.307 264.96 36.185C264.269 36.063 263.577 36.002 262.886 36.002C261.951 36.002 261.076 36.124 260.263 36.368C259.45 36.612 258.779 36.9983 258.25 37.527C257.762 38.015 257.518 38.6657 257.518 39.479C257.518 40.0077 257.742 40.4957 258.189 40.943C258.636 41.3497 259.206 41.7157 259.897 42.041C260.588 42.3663 261.3 42.6713 262.032 42.956C262.764 43.2 263.415 43.4033 263.984 43.566C265.936 44.2167 267.705 44.9487 269.291 45.762C270.918 46.5347 272.199 47.531 273.134 48.751C274.11 49.971 274.598 51.5367 274.598 53.448C274.598 55.1967 274.13 56.742 273.195 58.084C272.26 59.3853 270.979 60.402 269.352 61.134C267.766 61.8253 265.916 62.171 263.801 62.171C262.174 62.171 260.466 61.927 258.677 61.439C256.888 60.951 255.119 60.2393 253.37 59.304C252.435 58.816 251.865 58.206 251.662 57.474C251.499 56.742 251.581 56.0507 251.906 55.4C252.272 54.7493 252.801 54.302 253.492 54.058C254.224 53.814 255.037 53.936 255.932 54.424C256.827 54.912 257.721 55.3187 258.616 55.644C259.511 55.9693 260.385 56.2337 261.239 56.437C262.134 56.5997 262.988 56.681 263.801 56.681C264.736 56.681 265.59 56.5793 266.363 56.376C267.176 56.132 267.827 55.7863 268.315 55.339C268.844 54.851 269.108 54.2207 269.108 53.448C269.108 52.594 268.722 51.8823 267.949 51.313C267.176 50.703 266.241 50.215 265.143 49.849C264.086 49.4423 263.13 49.0967 262.276 48.812C260.365 48.1613 258.636 47.47 257.091 46.738C255.546 45.9653 254.305 45.03 253.37 43.932C252.475 42.7933 252.028 41.309 252.028 39.479C252.028 37.6897 252.496 36.124 253.431 34.782C254.366 33.44 255.647 32.403 257.274 31.671C258.901 30.8983 260.771 30.512 262.886 30.512C264.269 30.512 265.712 30.695 267.217 31.061C268.722 31.3863 270.247 31.9353 271.792 32.708C272.687 33.1553 273.236 33.745 273.439 34.477C273.683 35.1683 273.642 35.8393 273.317 36.49C273.032 37.1407 272.524 37.6083 271.792 37.893C271.101 38.1777 270.287 38.076 269.352 37.588ZM281.364 59.06C281.364 58.206 281.364 57.3317 281.364 56.437C281.364 55.5423 281.364 54.6883 281.364 53.875C281.364 53.021 281.364 52.2077 281.364 51.435C281.364 50.0523 281.364 48.8527 281.364 47.836C281.364 46.8193 281.364 45.8027 281.364 44.786C281.364 43.7693 281.364 42.5697 281.364 41.187C281.364 40.4143 281.364 39.6417 281.364 38.869C281.364 38.0963 281.364 37.283 281.364 36.429C281.364 35.5343 281.364 34.5787 281.364 33.562C281.364 32.5453 281.628 31.793 282.157 31.305C282.726 30.7763 283.377 30.512 284.109 30.512C284.841 30.512 285.471 30.7763 286 31.305C286.569 31.793 286.854 32.5453 286.854 33.562C286.854 34.6193 286.854 35.5547 286.854 36.368C286.854 37.1407 286.854 37.9133 286.854 38.686C286.854 39.418 286.854 40.2517 286.854 41.187C286.854 42.1223 286.854 43.2203 286.854 44.481C286.854 45.701 286.854 46.9413 286.854 48.202C286.854 49.422 286.854 50.4997 286.854 51.435C286.854 52.3703 286.854 53.2447 286.854 54.058C286.854 54.8713 286.854 55.6847 286.854 56.498C286.854 57.2707 286.854 58.1247 286.854 59.06C286.854 60.0767 286.569 60.8493 286 61.378C285.471 61.9067 284.841 62.171 284.109 62.171C283.377 62.171 282.726 61.927 282.157 61.439C281.628 60.9103 281.364 60.1173 281.364 59.06ZM281.364 22.704C281.364 22.2567 281.364 21.8907 281.364 21.606C281.364 21.3213 281.364 21.0367 281.364 20.752C281.364 20.4673 281.364 20.1217 281.364 19.715C281.364 18.7797 281.628 18.0883 282.157 17.641C282.726 17.153 283.377 16.909 284.109 16.909C284.841 16.909 285.471 17.153 286 17.641C286.569 18.0883 286.854 18.7797 286.854 19.715C286.854 20.1217 286.854 20.4673 286.854 20.752C286.854 21.0367 286.854 21.3213 286.854 21.606C286.854 21.8907 286.854 22.2567 286.854 22.704C286.854 23.6393 286.569 24.351 286 24.839C285.471 25.2863 284.841 25.51 284.109 25.51C283.377 25.51 282.726 25.2863 282.157 24.839C281.628 24.351 281.364 23.6393 281.364 22.704ZM304.205 61.561C302.497 60.951 300.992 60.1987 299.691 59.304C298.43 58.3687 297.312 57.169 296.336 55.705C295.482 54.4443 294.811 53.021 294.323 51.435C293.835 49.849 293.591 48.141 293.591 46.311C293.591 43.261 294.242 40.5567 295.543 38.198C296.885 35.7987 298.695 33.928 300.972 32.586C303.29 31.2033 305.893 30.512 308.78 30.512C311.708 30.512 314.311 31.2033 316.588 32.586C318.906 33.928 320.716 35.7987 322.017 38.198C323.359 40.5567 324.03 43.261 324.03 46.311C324.03 48.1003 323.786 49.788 323.298 51.374C322.851 52.9193 322.18 54.3427 321.285 55.644C320.309 57.1487 319.191 58.3483 317.93 59.243C316.669 60.1377 315.124 60.9103 313.294 61.561C312.359 61.8863 311.545 61.866 310.854 61.5C310.203 61.134 309.756 60.6053 309.512 59.914C309.268 59.2227 309.309 58.5517 309.634 57.901C309.959 57.2097 310.61 56.681 311.586 56.315C312.806 55.9083 313.802 55.4407 314.575 54.912C315.348 54.3427 316.08 53.57 316.771 52.594C317.34 51.74 317.767 50.7843 318.052 49.727C318.377 48.6697 318.54 47.531 318.54 46.311C318.54 44.3183 318.113 42.5493 317.259 41.004C316.446 39.418 315.307 38.198 313.843 37.344C312.379 36.4493 310.691 36.002 308.78 36.002C306.869 36.002 305.181 36.4493 303.717 37.344C302.253 38.198 301.114 39.418 300.301 41.004C299.488 42.5493 299.081 44.3183 299.081 46.311C299.081 47.531 299.223 48.69 299.508 49.788C299.833 50.8453 300.281 51.801 300.85 52.655C301.297 53.3057 301.765 53.8547 302.253 54.302C302.782 54.7493 303.351 55.1357 303.961 55.461C304.571 55.7863 305.242 56.071 305.974 56.315C306.95 56.681 307.601 57.2097 307.926 57.901C308.251 58.5517 308.292 59.2227 308.048 59.914C307.804 60.6053 307.336 61.134 306.645 61.5C305.994 61.866 305.181 61.8863 304.205 61.561ZM352.099 59.06C352.099 58.206 352.099 57.3113 352.099 56.376C352.099 55.4 352.099 54.4443 352.099 53.509C352.099 52.533 352.099 51.6383 352.099 50.825C352.099 49.849 352.099 48.7713 352.099 47.592C352.099 46.372 352.099 45.0503 352.099 43.627C352.099 41.919 351.814 40.516 351.245 39.418C350.716 38.2793 349.923 37.4253 348.866 36.856C347.809 36.2867 346.507 36.002 344.962 36.002C343.62 36.002 342.4 36.2257 341.302 36.673C340.204 37.0797 339.248 37.6897 338.435 38.503C337.662 39.3163 337.052 40.333 336.605 41.553C336.158 42.773 335.934 44.176 335.934 45.762C335.934 46.4533 335.934 47.3683 335.934 48.507C335.934 49.605 335.934 50.7843 335.934 52.045C335.934 53.3057 335.934 54.5663 335.934 55.827C335.934 57.047 335.934 58.1247 335.934 59.06C335.934 59.8733 335.751 60.5443 335.385 61.073C335.019 61.561 334.551 61.8863 333.982 62.049C333.453 62.2117 332.904 62.2117 332.335 62.049C331.806 61.8863 331.359 61.561 330.993 61.073C330.627 60.5443 330.444 59.8733 330.444 59.06C330.444 58.2873 330.444 57.2503 330.444 55.949C330.444 54.607 330.444 53.1633 330.444 51.618C330.444 50.032 330.444 48.507 330.444 47.043C330.444 45.5383 330.444 44.237 330.444 43.139C330.444 42.041 330.444 41.2887 330.444 40.882C330.444 40.0687 330.444 39.2553 330.444 38.442C330.444 37.6287 330.444 36.8153 330.444 36.002C330.444 35.1887 330.444 34.3753 330.444 33.562C330.444 32.5453 330.708 31.7727 331.237 31.244C331.806 30.7153 332.457 30.451 333.189 30.451C333.921 30.451 334.551 30.7153 335.08 31.244C335.649 31.7727 335.934 32.5453 335.934 33.562C335.934 34.4567 335.934 35.2903 335.934 36.063C335.934 36.8357 335.934 37.6083 335.934 38.381C335.934 39.1537 335.934 39.9873 335.934 40.882C335.934 41.126 335.934 41.797 335.934 42.895C335.934 43.9523 335.934 45.2537 335.934 46.799C335.934 48.3037 335.934 49.8693 335.934 51.496C335.934 53.082 335.934 54.5663 335.934 55.949C335.934 57.291 335.934 58.328 335.934 59.06C335.934 59.8733 335.751 60.5443 335.385 61.073C335.019 61.561 334.551 61.8863 333.982 62.049C333.453 62.2117 332.904 62.2117 332.335 62.049C331.806 61.8863 331.359 61.561 330.993 61.073C330.627 60.5443 330.444 59.8733 330.444 59.06C330.444 58.1247 330.444 57.1487 330.444 56.132C330.444 55.0747 330.444 53.997 330.444 52.899C330.444 51.801 330.444 50.703 330.444 49.605C330.444 48.4663 330.444 47.3887 330.444 46.372C330.444 44.298 330.81 42.3053 331.542 40.394C332.315 38.4827 333.372 36.795 334.714 35.331C336.056 33.8263 337.642 32.647 339.472 31.793C341.302 30.939 343.274 30.512 345.389 30.512C347.138 30.512 348.744 30.7967 350.208 31.366C351.713 31.9353 353.014 32.7893 354.112 33.928C355.21 35.026 356.064 36.3883 356.674 38.015C357.284 39.6417 357.589 41.5123 357.589 43.627C357.589 44.5623 357.589 45.64 357.589 46.86C357.589 48.0393 357.589 49.361 357.589 50.825C357.589 51.8417 357.589 52.7973 357.589 53.692C357.589 54.546 357.589 55.4 357.589 56.254C357.589 57.108 357.589 58.0433 357.589 59.06C357.589 60.0767 357.304 60.8493 356.735 61.378C356.206 61.9067 355.576 62.171 354.844 62.171C354.112 62.171 353.461 61.9067 352.892 61.378C352.363 60.8493 352.099 60.0767 352.099 59.06Z" fill="url(#paint1_linear_7276_32380)"/>
<defs>
<linearGradient id="paint0_linear_7276_32380" x1="2.66667" y1="77.6667" x2="72.6667" y2="9" gradientUnits="userSpaceOnUse">
<stop offset="0.355" stop-color="#04948C"/>
<stop offset="0.94" stop-color="#FF03B7"/>
</linearGradient>
<linearGradient id="paint1_linear_7276_32380" x1="104.867" y1="74.3708" x2="138.019" y2="-44.1281" gradientUnits="userSpaceOnUse">
<stop offset="0.355" stop-color="#04948C"/>
<stop offset="0.94" stop-color="#FF03B7"/>
</linearGradient>
</defs>
</svg>
