<svg width="27" height="40" viewBox="0 0 27 40" fill="none" xmlns="http://www.w3.org/2000/svg">
<path d="M10.9919 18.9203C11.4577 18.9203 11.8353 18.5427 11.8353 18.0768C11.8353 17.611 11.4577 17.2334 10.9919 17.2334C10.5261 17.2334 10.1484 17.611 10.1484 18.0768C10.1484 18.5427 10.5261 18.9203 10.9919 18.9203Z" fill="url(#paint0_linear_1_1604)"/>
<path d="M15.5935 18.9205C16.0594 18.9205 16.4371 18.5428 16.4371 18.0769C16.4371 17.6111 16.0594 17.2334 15.5935 17.2334C15.1277 17.2334 14.75 17.6111 14.75 18.0769C14.75 18.5428 15.1277 18.9205 15.5935 18.9205Z" fill="url(#paint1_linear_1_1604)"/>
<path d="M7.05142 16.0886C6.61983 15.8878 6.21517 15.6741 5.83783 15.4541C5.43828 15.221 4.9375 15.513 4.9375 15.9756V18.8234L4.93882 18.8808C5.05887 21.4482 6.40441 23.5943 8.82997 25.087C10.1525 25.9009 11.6352 26.3079 13.1183 26.3079C14.601 26.3077 16.0842 25.9008 17.4065 25.087C19.8321 23.5943 21.1778 21.4482 21.2976 18.8807L21.2983 16.1134C21.2985 15.6519 20.8033 15.3653 20.4004 15.5904C20.0262 15.7994 19.6267 16.0011 19.2021 16.1898C18.9825 16.2876 18.8375 16.5019 18.8375 16.7424V18.7931C18.748 20.5225 17.8327 21.9346 16.1164 22.9906C14.2685 24.1278 11.9677 24.1277 10.1198 22.9905C8.40386 21.9344 7.48859 20.5225 7.39898 18.7931V16.641C7.39889 16.4053 7.26514 16.1879 7.05142 16.0886Z" fill="url(#paint2_linear_1_1604)"/>
<path d="M13.1187 40.0002H23.2644C24.9107 40.0002 26.2263 38.663 25.8659 37.0567C25.2179 34.1684 23.4405 29.9385 18.5671 28.1049C18.2601 27.9894 17.9092 28.0951 17.7243 28.366C16.721 29.8362 15.0328 30.8015 13.1187 30.8015C11.2047 30.8015 9.51646 29.8362 8.51319 28.366C8.3283 28.0951 7.97743 27.9895 7.67042 28.1049C2.79696 29.9385 1.01956 34.1684 0.371543 37.0567C0.0111391 38.6631 1.32678 40.0002 2.97306 40.0002H13.1187Z" fill="url(#paint3_linear_1_1604)"/>
<path d="M6.80489 13.7764C7.51524 13.9947 8.21244 13.3964 8.16225 12.6926L8.15998 12.6603C8.13049 12.2468 8.59536 11.9731 8.97723 12.1775C9.62434 12.5241 10.6577 12.9749 12.1818 13.3728C12.8542 13.5482 13.5243 13.0954 13.5707 12.4376C13.602 11.9935 14.101 11.7231 14.5206 11.9269C15.3491 12.3293 16.706 12.8768 18.3476 13.1215C20.1816 13.3949 21.9717 12.3692 22.5386 10.7C22.8351 9.82698 22.9988 8.50743 22.8215 7.12974C22.8215 7.12974 21.8291 -0.13027 11.7663 0.00177976C11.7663 0.00177976 8.81843 0.00442685 6.79506 1.99321C6.38398 2.39721 5.92394 2.74647 5.4362 3.05387C4.71564 3.50786 3.63685 4.53751 3.00704 6.8008C3.00704 6.8008 1.67549 12.1998 6.80489 13.7764Z" fill="url(#paint4_linear_1_1604)"/>
<g style="mix-blend-mode:plus-lighter">
<path d="M10.9919 18.9203C11.4577 18.9203 11.8353 18.5427 11.8353 18.0768C11.8353 17.611 11.4577 17.2334 10.9919 17.2334C10.5261 17.2334 10.1484 17.611 10.1484 18.0768C10.1484 18.5427 10.5261 18.9203 10.9919 18.9203Z" fill="url(#paint5_linear_1_1604)"/>
<path d="M15.5935 18.9205C16.0594 18.9205 16.4371 18.5428 16.4371 18.0769C16.4371 17.6111 16.0594 17.2334 15.5935 17.2334C15.1277 17.2334 14.75 17.6111 14.75 18.0769C14.75 18.5428 15.1277 18.9205 15.5935 18.9205Z" fill="url(#paint6_linear_1_1604)"/>
<path d="M7.05142 16.0886C6.61983 15.8878 6.21517 15.6741 5.83783 15.4541C5.43828 15.221 4.9375 15.513 4.9375 15.9756V18.8234L4.93882 18.8808C5.05887 21.4482 6.40441 23.5943 8.82997 25.087C10.1525 25.9009 11.6352 26.3079 13.1183 26.3079C14.601 26.3077 16.0842 25.9008 17.4065 25.087C19.8321 23.5943 21.1778 21.4482 21.2976 18.8807L21.2983 16.1134C21.2985 15.6519 20.8033 15.3653 20.4004 15.5904C20.0262 15.7994 19.6267 16.0011 19.2021 16.1898C18.9825 16.2876 18.8375 16.5019 18.8375 16.7424V18.7931C18.748 20.5225 17.8327 21.9346 16.1164 22.9906C14.2685 24.1278 11.9677 24.1277 10.1198 22.9905C8.40386 21.9344 7.48859 20.5225 7.39898 18.7931V16.641C7.39889 16.4053 7.26514 16.1879 7.05142 16.0886Z" fill="url(#paint7_linear_1_1604)"/>
<path d="M13.1187 40.0002H23.2644C24.9107 40.0002 26.2263 38.663 25.8659 37.0567C25.2179 34.1684 23.4405 29.9385 18.5671 28.1049C18.2601 27.9894 17.9092 28.0951 17.7243 28.366C16.721 29.8362 15.0328 30.8015 13.1187 30.8015C11.2047 30.8015 9.51646 29.8362 8.51319 28.366C8.3283 28.0951 7.97743 27.9895 7.67042 28.1049C2.79696 29.9385 1.01956 34.1684 0.371543 37.0567C0.0111391 38.6631 1.32678 40.0002 2.97306 40.0002H13.1187Z" fill="url(#paint8_linear_1_1604)"/>
<path d="M6.80489 13.7764C7.51524 13.9947 8.21244 13.3964 8.16225 12.6926L8.15998 12.6603C8.13049 12.2468 8.59536 11.9731 8.97723 12.1775C9.62434 12.5241 10.6577 12.9749 12.1818 13.3728C12.8542 13.5482 13.5243 13.0954 13.5707 12.4376C13.602 11.9935 14.101 11.7231 14.5206 11.9269C15.3491 12.3293 16.706 12.8768 18.3476 13.1215C20.1816 13.3949 21.9717 12.3692 22.5386 10.7C22.8351 9.82698 22.9988 8.50743 22.8215 7.12974C22.8215 7.12974 21.8291 -0.13027 11.7663 0.00177976C11.7663 0.00177976 8.81843 0.00442685 6.79506 1.99321C6.38398 2.39721 5.92394 2.74647 5.4362 3.05387C4.71564 3.50786 3.63685 4.53751 3.00704 6.8008C3.00704 6.8008 1.67549 12.1998 6.80489 13.7764Z" fill="url(#paint9_linear_1_1604)"/>
</g>
<defs>
<linearGradient id="paint0_linear_1_1604" x1="10.1484" y1="18.0768" x2="11.8353" y2="18.0768" gradientUnits="userSpaceOnUse">
<stop stop-color="#B80079"/>
<stop offset="1" stop-color="#F04CB8"/>
</linearGradient>
<linearGradient id="paint1_linear_1_1604" x1="14.75" y1="18.0769" x2="16.4371" y2="18.0769" gradientUnits="userSpaceOnUse">
<stop stop-color="#B80079"/>
<stop offset="1" stop-color="#F04CB8"/>
</linearGradient>
<linearGradient id="paint2_linear_1_1604" x1="4.9375" y1="20.84" x2="21.2983" y2="20.84" gradientUnits="userSpaceOnUse">
<stop stop-color="#B80079"/>
<stop offset="1" stop-color="#F04CB8"/>
</linearGradient>
<linearGradient id="paint3_linear_1_1604" x1="0" y1="34.0294" x2="26.2375" y2="34.0294" gradientUnits="userSpaceOnUse">
<stop stop-color="#B80079"/>
<stop offset="1" stop-color="#F04CB8"/>
</linearGradient>
<linearGradient id="paint4_linear_1_1604" x1="2.85156" y1="6.91102" x2="22.8948" y2="6.91102" gradientUnits="userSpaceOnUse">
<stop stop-color="#B80079"/>
<stop offset="1" stop-color="#F04CB8"/>
</linearGradient>
<linearGradient id="paint5_linear_1_1604" x1="10.0937" y1="18.1009" x2="11.8353" y2="18.1009" gradientUnits="userSpaceOnUse">
<stop stop-color="white" stop-opacity="0.1"/>
<stop offset="1" stop-color="white" stop-opacity="0.05"/>
</linearGradient>
<linearGradient id="paint6_linear_1_1604" x1="14.6952" y1="18.101" x2="16.4371" y2="18.101" gradientUnits="userSpaceOnUse">
<stop stop-color="white" stop-opacity="0.1"/>
<stop offset="1" stop-color="white" stop-opacity="0.05"/>
</linearGradient>
<linearGradient id="paint7_linear_1_1604" x1="4.40631" y1="20.9962" x2="21.2983" y2="20.9962" gradientUnits="userSpaceOnUse">
<stop stop-color="white" stop-opacity="0.1"/>
<stop offset="1" stop-color="white" stop-opacity="0.05"/>
</linearGradient>
<linearGradient id="paint8_linear_1_1604" x1="-0.851867" y1="34.2" x2="26.2375" y2="34.2" gradientUnits="userSpaceOnUse">
<stop stop-color="white" stop-opacity="0.1"/>
<stop offset="1" stop-color="white" stop-opacity="0.05"/>
</linearGradient>
<linearGradient id="paint9_linear_1_1604" x1="2.20081" y1="7.10848" x2="22.8948" y2="7.10848" gradientUnits="userSpaceOnUse">
<stop stop-color="white" stop-opacity="0.1"/>
<stop offset="1" stop-color="white" stop-opacity="0.05"/>
</linearGradient>
</defs>
</svg>
