<svg width="38" height="30" viewBox="0 0 38 30" fill="none" xmlns="http://www.w3.org/2000/svg">
<path d="M15.3906 14.7656H21.6613V18.9796H15.3906V14.7656Z" fill="#04948C"/>
<path d="M34.2486 3.74471H25.5174V3.1284C25.5174 1.4008 24.1119 0 22.389 0H14.5865C12.8589 0 11.4581 1.40546 11.4581 3.1284V3.74471H2.80154C1.25605 3.74471 0 5.00076 0 6.54625V27.1985C0 28.744 1.25605 30 2.80154 30H34.2511C35.7966 30 37.0526 28.744 37.0526 27.1985V6.54625C37.0526 5.00076 35.7966 3.74471 34.2511 3.74471H34.2486ZM13.3256 3.1284C13.3256 2.43266 13.8906 1.86769 14.5864 1.86769H22.3888C23.0846 1.86769 23.6495 2.43267 23.6495 3.1284V3.74471H13.3261L13.3256 3.1284ZM35.1821 13.193L22.3605 17.5424V18.747C22.3605 19.263 21.9426 19.6809 21.4267 19.6809H15.6228C15.1069 19.6809 14.689 19.263 14.689 18.747V17.5424L1.86733 13.193V11.2203L14.689 15.5696V15C14.689 14.484 15.1069 14.0661 15.6228 14.0661H21.4267C21.9426 14.0661 22.3605 14.484 22.3605 15V15.5696L35.1821 11.2203V13.193Z" fill="#04948C"/>
<g style="mix-blend-mode:plus-lighter">
<path d="M15.3906 14.7656H21.6613V18.9796H15.3906V14.7656Z" fill="url(#paint0_linear_194_3350)"/>
<path d="M34.2486 3.74471H25.5174V3.1284C25.5174 1.4008 24.1119 0 22.389 0H14.5865C12.8589 0 11.4581 1.40546 11.4581 3.1284V3.74471H2.80154C1.25605 3.74471 0 5.00076 0 6.54625V27.1985C0 28.744 1.25605 30 2.80154 30H34.2511C35.7966 30 37.0526 28.744 37.0526 27.1985V6.54625C37.0526 5.00076 35.7966 3.74471 34.2511 3.74471H34.2486ZM13.3256 3.1284C13.3256 2.43266 13.8906 1.86769 14.5864 1.86769H22.3888C23.0846 1.86769 23.6495 2.43267 23.6495 3.1284V3.74471H13.3261L13.3256 3.1284ZM35.1821 13.193L22.3605 17.5424V18.747C22.3605 19.263 21.9426 19.6809 21.4267 19.6809H15.6228C15.1069 19.6809 14.689 19.263 14.689 18.747V17.5424L1.86733 13.193V11.2203L14.689 15.5696V15C14.689 14.484 15.1069 14.0661 15.6228 14.0661H21.4267C21.9426 14.0661 22.3605 14.484 22.3605 15V15.5696L35.1821 11.2203V13.193Z" fill="url(#paint1_linear_194_3350)"/>
</g>
<defs>
<linearGradient id="paint0_linear_194_3350" x1="15.187" y1="16.9328" x2="21.6613" y2="16.9328" gradientUnits="userSpaceOnUse">
<stop stop-color="white" stop-opacity="0.1"/>
<stop offset="1" stop-color="white" stop-opacity="0.05"/>
</linearGradient>
<linearGradient id="paint1_linear_194_3350" x1="-1.20301" y1="15.4286" x2="37.0526" y2="15.4286" gradientUnits="userSpaceOnUse">
<stop stop-color="white" stop-opacity="0.1"/>
<stop offset="1" stop-color="white" stop-opacity="0.05"/>
</linearGradient>
</defs>
</svg>
