<svg width="36" height="32" viewBox="0 0 36 32" fill="none" xmlns="http://www.w3.org/2000/svg">
<path d="M8.80106 1.06243V2.33733H6.67623V1.06243C6.67623 0.780655 6.78816 0.510425 6.9874 0.311183C7.18664 0.111941 7.45687 8.56875e-06 7.73864 8.56875e-06C8.02041 8.56875e-06 8.29064 0.111941 8.48989 0.311183C8.68913 0.510425 8.80106 0.780655 8.80106 1.06243ZM17.6021 8.56875e-06C17.4624 -0.000553514 17.324 0.0265429 17.1949 0.0797352C17.0657 0.132928 16.9484 0.211163 16.8496 0.30993C16.7509 0.408696 16.6726 0.52604 16.6194 0.655192C16.5662 0.784344 16.5391 0.922749 16.5397 1.06243V2.33733H18.6645V1.06243C18.6651 0.922749 18.638 0.784344 18.5848 0.655192C18.5316 0.52604 18.4534 0.408696 18.3546 0.30993C18.2558 0.211163 18.1385 0.132928 18.0094 0.0797352C17.8802 0.0265429 17.7418 -0.000553514 17.6021 8.56875e-06ZM27.4656 8.56875e-06C27.3259 -0.000553514 27.1875 0.0265429 27.0584 0.0797352C26.9292 0.132928 26.8119 0.211163 26.7131 0.30993C26.6143 0.408696 26.5361 0.52604 26.4829 0.655192C26.4297 0.784344 26.4026 0.922749 26.4032 1.06243V2.33733H28.528V1.06243C28.5286 0.922749 28.5015 0.784344 28.4483 0.655192C28.3951 0.52604 28.3169 0.408696 28.2181 0.30993C28.1193 0.211163 28.002 0.132928 27.8728 0.0797352C27.7437 0.0265429 27.6053 -0.000553514 27.4656 8.56875e-06ZM31.592 2.35007H28.528V5.91554C28.528 6.19732 28.4161 6.46755 28.2168 6.66679C28.0176 6.86603 27.7474 6.97796 27.4656 6.97796C27.1838 6.97796 26.9136 6.86603 26.7144 6.66679C26.5151 6.46755 26.4032 6.19732 26.4032 5.91554V2.35007H18.6645V5.91554C18.6645 6.19732 18.5526 6.46755 18.3534 6.66679C18.1541 6.86603 17.8839 6.97796 17.6021 6.97796C17.3203 6.97796 17.0501 6.86603 16.8509 6.66679C16.6516 6.46755 16.5397 6.19732 16.5397 5.91554V2.35007H8.80106V5.91554C8.80106 6.19732 8.68913 6.46755 8.48989 6.66679C8.29064 6.86603 8.02041 6.97796 7.73864 6.97796C7.45687 6.97796 7.18664 6.86603 6.9874 6.66679C6.78816 6.46755 6.67623 6.19732 6.67623 5.91554V2.35007H3.61222C2.65454 2.3512 1.73641 2.73213 1.05924 3.40931C0.382058 4.08649 0.00112469 5.00462 0 5.96229V8.93706H35.2042V5.96229C35.2031 5.00462 34.8222 4.08649 34.145 3.40931C33.4678 2.73213 32.5497 2.3512 31.592 2.35007ZM22.332 20.4112L20.2369 20.1052C19.8864 20.0547 19.5535 19.9195 19.2669 19.7115C18.9804 19.5034 18.7488 19.2287 18.5923 18.911L17.6574 17.0114C17.6518 17.0017 17.6437 16.9937 17.634 16.988C17.6243 16.9824 17.6133 16.9795 17.6021 16.9795C17.5909 16.9795 17.5799 16.9824 17.5702 16.988C17.5605 16.9937 17.5525 17.0017 17.5469 17.0114L16.6119 18.911C16.4554 19.2287 16.2239 19.5034 15.9373 19.7115C15.6508 19.9195 15.3178 20.0547 14.9673 20.1052L12.8722 20.4112C12.8722 20.4112 12.834 20.4112 12.8212 20.4494C12.8156 20.4591 12.8127 20.4701 12.8127 20.4813C12.8127 20.4925 12.8156 20.5035 12.8212 20.5132L14.3384 21.9878C14.5915 22.2354 14.781 22.5406 14.8905 22.8773C15 23.214 15.0264 23.5723 14.9673 23.9214L14.6274 26.008C14.6248 26.0193 14.6259 26.0312 14.6305 26.0418C14.6351 26.0525 14.6429 26.0615 14.6529 26.0675C14.6619 26.0747 14.6731 26.0787 14.6847 26.0787C14.6963 26.0787 14.7076 26.0747 14.7166 26.0675L16.5907 25.0815C16.9043 24.9181 17.2527 24.8327 17.6064 24.8327C17.96 24.8327 18.3084 24.9181 18.622 25.0815L20.4919 26.0717C20.5009 26.079 20.5122 26.0829 20.5238 26.0829C20.5354 26.0829 20.5466 26.079 20.5556 26.0717C20.5656 26.0657 20.5734 26.0568 20.578 26.0461C20.5826 26.0354 20.5837 26.0236 20.5811 26.0122L20.2199 23.9256C20.1608 23.5765 20.1872 23.2183 20.2967 22.8815C20.4063 22.5448 20.5957 22.2396 20.8489 21.992L22.366 20.5174C22.3716 20.5077 22.3745 20.4967 22.3745 20.4855C22.3745 20.4743 22.3716 20.4633 22.366 20.4537C22.3702 20.4154 22.3532 20.4112 22.332 20.4112ZM35.2042 11.0619V28.3878C35.2031 29.3455 34.8222 30.2636 34.145 30.9408C33.4678 31.6179 32.5497 31.9989 31.592 32H3.61222C2.65454 31.9989 1.73641 31.6179 1.05924 30.9408C0.382058 30.2636 0.00112469 29.3455 0 28.3878V11.0576L35.2042 11.0619ZM24.4016 19.795C24.2775 19.4061 24.0461 19.0602 23.7341 18.7971C23.4221 18.534 23.0422 18.3643 22.638 18.3076L20.5429 18.0016C20.5331 18.0017 20.5234 17.9989 20.5151 17.9936C20.5068 17.9883 20.5002 17.9808 20.4961 17.9718L19.5612 16.0722C19.3809 15.7066 19.1018 15.3987 18.7556 15.1834C18.4094 14.9681 18.0098 14.854 17.6021 14.854C17.1944 14.854 16.7948 14.9681 16.4486 15.1834C16.1024 15.3987 15.8233 15.7066 15.643 16.0722L14.7081 17.9718C14.704 17.9808 14.6974 17.9883 14.6891 17.9936C14.6808 17.9989 14.6712 18.0017 14.6614 18.0016L12.5663 18.3076C12.1626 18.3659 11.7834 18.5361 11.4715 18.7989C11.1596 19.0616 10.9275 19.4065 10.8014 19.7943C10.6754 20.1822 10.6605 20.5976 10.7583 20.9935C10.8562 21.3894 11.0629 21.75 11.3551 22.0345L12.8722 23.5092C12.8761 23.5179 12.8781 23.5273 12.8781 23.5368C12.8781 23.5463 12.8761 23.5557 12.8722 23.5644L12.5153 25.651C12.4467 26.0523 12.4916 26.4648 12.645 26.842C12.7984 27.2191 13.0541 27.5459 13.3833 27.7854C13.7126 28.0249 14.1022 28.1676 14.5082 28.1975C14.9143 28.2273 15.3206 28.1431 15.6813 27.9543L17.5554 26.9684C17.5647 26.9642 17.5749 26.962 17.5851 26.962C17.5954 26.962 17.6055 26.9642 17.6149 26.9684L19.489 27.9543C19.8495 28.1448 20.2563 28.2304 20.6631 28.2013C21.0699 28.1722 21.4603 28.0296 21.7901 27.7897C22.1198 27.5498 22.3757 27.2222 22.5286 26.8441C22.6815 26.4661 22.7253 26.0527 22.655 25.651L22.298 23.5644C22.2941 23.5557 22.2921 23.5463 22.2921 23.5368C22.2921 23.5273 22.2941 23.5179 22.298 23.5092L23.8491 22.0345C24.1423 21.7508 24.3496 21.3903 24.4473 20.9942C24.545 20.5981 24.5292 20.1825 24.4016 19.795Z" fill="#04948C"/>
<g style="mix-blend-mode:plus-lighter">
<path d="M8.80106 1.06243V2.33733H6.67623V1.06243C6.67623 0.780655 6.78816 0.510425 6.9874 0.311183C7.18664 0.111941 7.45687 8.56875e-06 7.73864 8.56875e-06C8.02041 8.56875e-06 8.29064 0.111941 8.48989 0.311183C8.68913 0.510425 8.80106 0.780655 8.80106 1.06243ZM17.6021 8.56875e-06C17.4624 -0.000553514 17.324 0.0265429 17.1949 0.0797352C17.0657 0.132928 16.9484 0.211163 16.8496 0.30993C16.7509 0.408696 16.6726 0.52604 16.6194 0.655192C16.5662 0.784344 16.5391 0.922749 16.5397 1.06243V2.33733H18.6645V1.06243C18.6651 0.922749 18.638 0.784344 18.5848 0.655192C18.5316 0.52604 18.4534 0.408696 18.3546 0.30993C18.2558 0.211163 18.1385 0.132928 18.0094 0.0797352C17.8802 0.0265429 17.7418 -0.000553514 17.6021 8.56875e-06ZM27.4656 8.56875e-06C27.3259 -0.000553514 27.1875 0.0265429 27.0584 0.0797352C26.9292 0.132928 26.8119 0.211163 26.7131 0.30993C26.6143 0.408696 26.5361 0.52604 26.4829 0.655192C26.4297 0.784344 26.4026 0.922749 26.4032 1.06243V2.33733H28.528V1.06243C28.5286 0.922749 28.5015 0.784344 28.4483 0.655192C28.3951 0.52604 28.3169 0.408696 28.2181 0.30993C28.1193 0.211163 28.002 0.132928 27.8728 0.0797352C27.7437 0.0265429 27.6053 -0.000553514 27.4656 8.56875e-06ZM31.592 2.35007H28.528V5.91554C28.528 6.19732 28.4161 6.46755 28.2168 6.66679C28.0176 6.86603 27.7474 6.97796 27.4656 6.97796C27.1838 6.97796 26.9136 6.86603 26.7144 6.66679C26.5151 6.46755 26.4032 6.19732 26.4032 5.91554V2.35007H18.6645V5.91554C18.6645 6.19732 18.5526 6.46755 18.3534 6.66679C18.1541 6.86603 17.8839 6.97796 17.6021 6.97796C17.3203 6.97796 17.0501 6.86603 16.8509 6.66679C16.6516 6.46755 16.5397 6.19732 16.5397 5.91554V2.35007H8.80106V5.91554C8.80106 6.19732 8.68913 6.46755 8.48989 6.66679C8.29064 6.86603 8.02041 6.97796 7.73864 6.97796C7.45687 6.97796 7.18664 6.86603 6.9874 6.66679C6.78816 6.46755 6.67623 6.19732 6.67623 5.91554V2.35007H3.61222C2.65454 2.3512 1.73641 2.73213 1.05924 3.40931C0.382058 4.08649 0.00112469 5.00462 0 5.96229V8.93706H35.2042V5.96229C35.2031 5.00462 34.8222 4.08649 34.145 3.40931C33.4678 2.73213 32.5497 2.3512 31.592 2.35007ZM22.332 20.4112L20.2369 20.1052C19.8864 20.0547 19.5535 19.9195 19.2669 19.7115C18.9804 19.5034 18.7488 19.2287 18.5923 18.911L17.6574 17.0114C17.6518 17.0017 17.6437 16.9937 17.634 16.988C17.6243 16.9824 17.6133 16.9795 17.6021 16.9795C17.5909 16.9795 17.5799 16.9824 17.5702 16.988C17.5605 16.9937 17.5525 17.0017 17.5469 17.0114L16.6119 18.911C16.4554 19.2287 16.2239 19.5034 15.9373 19.7115C15.6508 19.9195 15.3178 20.0547 14.9673 20.1052L12.8722 20.4112C12.8722 20.4112 12.834 20.4112 12.8212 20.4494C12.8156 20.4591 12.8127 20.4701 12.8127 20.4813C12.8127 20.4925 12.8156 20.5035 12.8212 20.5132L14.3384 21.9878C14.5915 22.2354 14.781 22.5406 14.8905 22.8773C15 23.214 15.0264 23.5723 14.9673 23.9214L14.6274 26.008C14.6248 26.0193 14.6259 26.0312 14.6305 26.0418C14.6351 26.0525 14.6429 26.0615 14.6529 26.0675C14.6619 26.0747 14.6731 26.0787 14.6847 26.0787C14.6963 26.0787 14.7076 26.0747 14.7166 26.0675L16.5907 25.0815C16.9043 24.9181 17.2527 24.8327 17.6064 24.8327C17.96 24.8327 18.3084 24.9181 18.622 25.0815L20.4919 26.0717C20.5009 26.079 20.5122 26.0829 20.5238 26.0829C20.5354 26.0829 20.5466 26.079 20.5556 26.0717C20.5656 26.0657 20.5734 26.0568 20.578 26.0461C20.5826 26.0354 20.5837 26.0236 20.5811 26.0122L20.2199 23.9256C20.1608 23.5765 20.1872 23.2183 20.2967 22.8815C20.4063 22.5448 20.5957 22.2396 20.8489 21.992L22.366 20.5174C22.3716 20.5077 22.3745 20.4967 22.3745 20.4855C22.3745 20.4743 22.3716 20.4633 22.366 20.4537C22.3702 20.4154 22.3532 20.4112 22.332 20.4112ZM35.2042 11.0619V28.3878C35.2031 29.3455 34.8222 30.2636 34.145 30.9408C33.4678 31.6179 32.5497 31.9989 31.592 32H3.61222C2.65454 31.9989 1.73641 31.6179 1.05924 30.9408C0.382058 30.2636 0.00112469 29.3455 0 28.3878V11.0576L35.2042 11.0619ZM24.4016 19.795C24.2775 19.4061 24.0461 19.0602 23.7341 18.7971C23.4221 18.534 23.0422 18.3643 22.638 18.3076L20.5429 18.0016C20.5331 18.0017 20.5234 17.9989 20.5151 17.9936C20.5068 17.9883 20.5002 17.9808 20.4961 17.9718L19.5612 16.0722C19.3809 15.7066 19.1018 15.3987 18.7556 15.1834C18.4094 14.9681 18.0098 14.854 17.6021 14.854C17.1944 14.854 16.7948 14.9681 16.4486 15.1834C16.1024 15.3987 15.8233 15.7066 15.643 16.0722L14.7081 17.9718C14.704 17.9808 14.6974 17.9883 14.6891 17.9936C14.6808 17.9989 14.6712 18.0017 14.6614 18.0016L12.5663 18.3076C12.1626 18.3659 11.7834 18.5361 11.4715 18.7989C11.1596 19.0616 10.9275 19.4065 10.8014 19.7943C10.6754 20.1822 10.6605 20.5976 10.7583 20.9935C10.8562 21.3894 11.0629 21.75 11.3551 22.0345L12.8722 23.5092C12.8761 23.5179 12.8781 23.5273 12.8781 23.5368C12.8781 23.5463 12.8761 23.5557 12.8722 23.5644L12.5153 25.651C12.4467 26.0523 12.4916 26.4648 12.645 26.842C12.7984 27.2191 13.0541 27.5459 13.3833 27.7854C13.7126 28.0249 14.1022 28.1676 14.5082 28.1975C14.9143 28.2273 15.3206 28.1431 15.6813 27.9543L17.5554 26.9684C17.5647 26.9642 17.5749 26.962 17.5851 26.962C17.5954 26.962 17.6055 26.9642 17.6149 26.9684L19.489 27.9543C19.8495 28.1448 20.2563 28.2304 20.6631 28.2013C21.0699 28.1722 21.4603 28.0296 21.7901 27.7897C22.1198 27.5498 22.3757 27.2222 22.5286 26.8441C22.6815 26.4661 22.7253 26.0527 22.655 25.651L22.298 23.5644C22.2941 23.5557 22.2921 23.5463 22.2921 23.5368C22.2921 23.5273 22.2941 23.5179 22.298 23.5092L23.8491 22.0345C24.1423 21.7508 24.3496 21.3903 24.4473 20.9942C24.545 20.5981 24.5292 20.1825 24.4016 19.795Z" fill="url(#paint0_linear_194_3348)"/>
</g>
<defs>
<linearGradient id="paint0_linear_194_3348" x1="-1.14299" y1="16.4571" x2="35.2042" y2="16.4571" gradientUnits="userSpaceOnUse">
<stop stop-color="white" stop-opacity="0.1"/>
<stop offset="1" stop-color="white" stop-opacity="0.05"/>
</linearGradient>
</defs>
</svg>
