<svg width="43" height="30" viewBox="0 0 43 30" fill="none" xmlns="http://www.w3.org/2000/svg">
<path d="M42.4704 7.22379C42.4422 7.2097 42.4052 7.1956 42.37 7.18151L21.6607 0.0387617C21.6537 0.0387617 21.6466 0.0317141 21.6396 0.0317141C21.5039 -0.0105714 21.3471 -0.0105714 21.2114 0.0317141C21.2044 0.0317141 21.1974 0.0387617 21.1903 0.0387617L0.479235 7.18151C0.443997 7.1956 0.406996 7.2097 0.378805 7.22379C0.14976 7.35241 0 7.5885 0 7.85985C0 8.13121 0.14976 8.36728 0.378805 8.49592C0.406996 8.51001 0.443995 8.52411 0.479235 8.5382L5.71361 10.3441V18.6975C4.68469 19.0041 3.92882 19.9608 3.92882 21.0901C3.92882 21.9464 4.37106 22.7322 5.07231 23.1903C4.97188 23.6255 4.87322 24.1118 4.77279 24.6544C4.50146 26.1679 4.28652 26.3 4.28652 28.5711C4.28652 28.7138 4.32881 28.8495 4.40809 28.9711C4.66533 29.3499 5.37887 30 6.429 30C7.47912 30 8.19267 29.3499 8.4499 28.9711C8.52919 28.8495 8.57147 28.7138 8.57147 28.5711C8.57147 26.3 8.35652 26.1697 8.0852 24.6544C7.98477 24.1118 7.88611 23.6255 7.78568 23.1903C8.48516 22.734 8.92917 21.9482 8.92917 21.0901C8.92917 19.9625 8.17155 19.0041 7.14439 18.6975L7.14086 10.8376L21.1886 15.6791C21.1957 15.6791 21.2027 15.6861 21.2098 15.6861C21.3455 15.7284 21.5023 15.7284 21.6379 15.6861C21.645 15.6861 21.652 15.6791 21.6591 15.6791L42.3701 8.53816C42.4054 8.52406 42.4424 8.50997 42.4706 8.49587C42.6996 8.36549 42.8494 8.13116 42.8494 7.85981C42.8494 7.58846 42.6995 7.35243 42.4704 7.22379Z" fill="#04948C"/>
<path d="M21.4261 17.229C21.3468 17.229 21.2693 17.2149 21.19 17.1867L10 13.3281V21.7658C10 22.1587 10.3207 22.4794 10.7136 22.4794C10.7858 22.4794 17.6411 22.5076 20.982 25.1786C21.1107 25.2861 21.2675 25.3354 21.4243 25.3354C21.5811 25.3354 21.7379 25.2861 21.8665 25.1786C25.2018 22.5146 32.0642 22.4794 32.135 22.4794C32.5279 22.4794 32.8485 22.1587 32.8485 21.7658L32.8521 13.3281L21.6621 17.1849C21.5828 17.2131 21.5053 17.2272 21.426 17.2272L21.4261 17.229Z" fill="#04948C"/>
<g style="mix-blend-mode:plus-lighter">
<path d="M42.4704 7.22379C42.4422 7.2097 42.4052 7.1956 42.37 7.18151L21.6607 0.0387617C21.6537 0.0387617 21.6466 0.0317141 21.6396 0.0317141C21.5039 -0.0105714 21.3471 -0.0105714 21.2114 0.0317141C21.2044 0.0317141 21.1974 0.0387617 21.1903 0.0387617L0.479235 7.18151C0.443997 7.1956 0.406996 7.2097 0.378805 7.22379C0.14976 7.35241 0 7.5885 0 7.85985C0 8.13121 0.14976 8.36728 0.378805 8.49592C0.406996 8.51001 0.443995 8.52411 0.479235 8.5382L5.71361 10.3441V18.6975C4.68469 19.0041 3.92882 19.9608 3.92882 21.0901C3.92882 21.9464 4.37106 22.7322 5.07231 23.1903C4.97188 23.6255 4.87322 24.1118 4.77279 24.6544C4.50146 26.1679 4.28652 26.3 4.28652 28.5711C4.28652 28.7138 4.32881 28.8495 4.40809 28.9711C4.66533 29.3499 5.37887 30 6.429 30C7.47912 30 8.19267 29.3499 8.4499 28.9711C8.52919 28.8495 8.57147 28.7138 8.57147 28.5711C8.57147 26.3 8.35652 26.1697 8.0852 24.6544C7.98477 24.1118 7.88611 23.6255 7.78568 23.1903C8.48516 22.734 8.92917 21.9482 8.92917 21.0901C8.92917 19.9625 8.17155 19.0041 7.14439 18.6975L7.14086 10.8376L21.1886 15.6791C21.1957 15.6791 21.2027 15.6861 21.2098 15.6861C21.3455 15.7284 21.5023 15.7284 21.6379 15.6861C21.645 15.6861 21.652 15.6791 21.6591 15.6791L42.3701 8.53816C42.4054 8.52406 42.4424 8.50997 42.4706 8.49587C42.6996 8.36549 42.8494 8.13116 42.8494 7.85981C42.8494 7.58846 42.6995 7.35243 42.4704 7.22379Z" fill="url(#paint0_linear_194_3349)"/>
<path d="M21.4261 17.229C21.3468 17.229 21.2693 17.2149 21.19 17.1867L10 13.3281V21.7658C10 22.1587 10.3207 22.4794 10.7136 22.4794C10.7858 22.4794 17.6411 22.5076 20.982 25.1786C21.1107 25.2861 21.2675 25.3354 21.4243 25.3354C21.5811 25.3354 21.7379 25.2861 21.8665 25.1786C25.2018 22.5146 32.0642 22.4794 32.135 22.4794C32.5279 22.4794 32.8485 22.1587 32.8485 21.7658L32.8521 13.3281L21.6621 17.1849C21.5828 17.2131 21.5053 17.2272 21.426 17.2272L21.4261 17.229Z" fill="url(#paint1_linear_194_3349)"/>
</g>
<defs>
<linearGradient id="paint0_linear_194_3349" x1="-1.39121" y1="15.4286" x2="42.8494" y2="15.4286" gradientUnits="userSpaceOnUse">
<stop stop-color="white" stop-opacity="0.1"/>
<stop offset="1" stop-color="white" stop-opacity="0.05"/>
</linearGradient>
<linearGradient id="paint1_linear_194_3349" x1="9.25805" y1="19.5033" x2="32.8521" y2="19.5033" gradientUnits="userSpaceOnUse">
<stop stop-color="white" stop-opacity="0.1"/>
<stop offset="1" stop-color="white" stop-opacity="0.05"/>
</linearGradient>
</defs>
</svg>
